<?plantuml 1.2026.2beta3?><svg xmlns="http://www.w3.org/2000/svg" xmlns:xlink="http://www.w3.org/1999/xlink" contentStyleType="text/css" data-diagram-type="CLASS" height="467px" preserveAspectRatio="none" style="width:1970px;height:467px;background:#FFFFFF;" version="1.1" viewBox="0 0 1970 467" width="1970px" zoomAndPan="magnify"><defs/><g><!--class Grid--><g class="entity" data-qualified-name="Grid" data-source-line="7" id="ent0002"><rect fill="#F1F1F1" height="105.1563" rx="2.5" ry="2.5" style="stroke:#181818;stroke-width:0.5;" width="215.998" x="979.6" y="355.07"/><ellipse cx="1054.9916" cy="375.2028" fill="#ADD1B2" rx="11" ry="11" style="stroke:#181818;stroke-width:1;"/><path d="M1057.9604,380.8434 Q1057.3822,381.1403 1056.7416,381.2809 Q1056.101,381.4372 1055.3979,381.4372 Q1052.8979,381.4372 1051.5697,379.7966 Q1050.2572,378.1403 1050.2572,375.0153 Q1050.2572,371.8903 1051.5697,370.2341 Q1052.8979,368.5778 1055.3979,368.5778 Q1056.101,368.5778 1056.7416,368.7341 Q1057.3979,368.8903 1057.9604,369.1872 L1057.9604,371.9059 Q1057.3354,371.3278 1056.7416,371.0622 Q1056.1479,370.7809 1055.5229,370.7809 Q1054.1791,370.7809 1053.4916,371.8591 Q1052.8041,372.9216 1052.8041,375.0153 Q1052.8041,377.1091 1053.4916,378.1872 Q1054.1791,379.2497 1055.5229,379.2497 Q1056.1479,379.2497 1056.7416,378.9841 Q1057.3354,378.7028 1057.9604,378.1247 L1057.9604,380.8434 Z " fill="#000000"/><text fill="#000000" font-family="sans-serif" font-size="12" font-style="italic" lengthAdjust="spacing" textLength="60.7148" x="1073.4916" y="371.2087">&#171;typedef&#187;</text><text fill="#000000" font-family="sans-serif" font-size="14" lengthAdjust="spacing" textLength="29.3809" x="1089.1586" y="387.0339">Grid</text><line style="stroke:#181818;stroke-width:0.5;" x1="980.6" x2="1194.598" y1="395.3356" y2="395.3356"/><text fill="#000000" font-family="sans-serif" font-size="14" lengthAdjust="spacing" textLength="203.998" x="985.6" y="412.3307">Grid = vector&lt;vector&lt;int&gt;&gt;</text><line style="stroke:#181818;stroke-width:1;" x1="980.6" x2="1194.598" y1="419.6325" y2="419.6325"/><text fill="#000000" font-family="sans-serif" font-size="14" lengthAdjust="spacing" textLength="57.4492" x="985.6" y="436.6276">0 = free</text><text fill="#000000" font-family="sans-serif" font-size="14" lengthAdjust="spacing" textLength="84.1846" x="985.6" y="452.9245">1 = blocked</text></g><!--class Cell--><g class="entity" data-qualified-name="Cell" data-source-line="14" id="ent0003"><rect fill="#F1F1F1" height="80.8594" rx="2.5" ry="2.5" style="stroke:#181818;stroke-width:0.5;" width="92.835" x="692.18" y="367.22"/><ellipse cx="714.0886" cy="387.3528" fill="#ADD1B2" rx="11" ry="11" style="stroke:#181818;stroke-width:1;"/><path d="M717.0574,392.9934 Q716.4793,393.2903 715.8386,393.4309 Q715.198,393.5872 714.4949,393.5872 Q711.9949,393.5872 710.6668,391.9466 Q709.3543,390.2903 709.3543,387.1653 Q709.3543,384.0403 710.6668,382.3841 Q711.9949,380.7278 714.4949,380.7278 Q715.198,380.7278 715.8386,380.8841 Q716.4949,381.0403 717.0574,381.3372 L717.0574,384.0559 Q716.4324,383.4778 715.8386,383.2122 Q715.2449,382.9309 714.6199,382.9309 Q713.2761,382.9309 712.5886,384.0091 Q711.9011,385.0716 711.9011,387.1653 Q711.9011,389.2591 712.5886,390.3372 Q713.2761,391.3997 714.6199,391.3997 Q715.2449,391.3997 715.8386,391.1341 Q716.4324,390.8528 717.0574,390.2747 L717.0574,392.9934 Z " fill="#000000"/><text fill="#000000" font-family="sans-serif" font-size="12" font-style="italic" lengthAdjust="spacing" textLength="49.4824" x="727.6239" y="383.3587">&#171;struct&#187;</text><text fill="#000000" font-family="sans-serif" font-size="14" lengthAdjust="spacing" textLength="26.168" x="739.2811" y="399.1839">Cell</text><line style="stroke:#181818;stroke-width:0.5;" x1="693.18" x2="784.015" y1="407.4856" y2="407.4856"/><text fill="#000000" font-family="sans-serif" font-size="14" lengthAdjust="spacing" textLength="78.8936" x="698.18" y="424.4807">+r : int = 0</text><text fill="#000000" font-family="sans-serif" font-size="14" lengthAdjust="spacing" textLength="80.835" x="698.18" y="440.7776">+c : int = 0</text></g><!--class OpenNode--><g class="entity" data-qualified-name="OpenNode" data-source-line="19" id="ent0004"><rect fill="#F1F1F1" height="97.1563" rx="2.5" ry="2.5" style="stroke:#181818;stroke-width:0.5;" width="105.9307" x="1857.63" y="359.07"/><ellipse cx="1872.63" cy="379.2028" fill="#ADD1B2" rx="11" ry="11" style="stroke:#181818;stroke-width:1;"/><path d="M1875.5987,384.8434 Q1875.0206,385.1403 1874.38,385.2809 Q1873.7394,385.4372 1873.0362,385.4372 Q1870.5362,385.4372 1869.2081,383.7966 Q1867.8956,382.1403 1867.8956,379.0153 Q1867.8956,375.8903 1869.2081,374.2341 Q1870.5362,372.5778 1873.0362,372.5778 Q1873.7394,372.5778 1874.38,372.7341 Q1875.0362,372.8903 1875.5987,373.1872 L1875.5987,375.9059 Q1874.9737,375.3278 1874.38,375.0622 Q1873.7862,374.7809 1873.1612,374.7809 Q1871.8175,374.7809 1871.13,375.8591 Q1870.4425,376.9216 1870.4425,379.0153 Q1870.4425,381.1091 1871.13,382.1872 Q1871.8175,383.2497 1873.1612,383.2497 Q1873.7862,383.2497 1874.38,382.9841 Q1874.9737,382.7028 1875.5987,382.1247 L1875.5987,384.8434 Z " fill="#000000"/><text fill="#000000" font-family="sans-serif" font-size="12" font-style="italic" lengthAdjust="spacing" textLength="49.4824" x="1898.8541" y="375.2087">&#171;struct&#187;</text><text fill="#000000" font-family="sans-serif" font-size="14" lengthAdjust="spacing" textLength="73.9307" x="1886.63" y="391.0339">OpenNode</text><line style="stroke:#181818;stroke-width:0.5;" x1="1858.63" x2="1962.5607" y1="399.3356" y2="399.3356"/><text fill="#000000" font-family="sans-serif" font-size="14" lengthAdjust="spacing" textLength="57.4287" x="1863.63" y="416.3307">+f   : int</text><text fill="#000000" font-family="sans-serif" font-size="14" lengthAdjust="spacing" textLength="61.3867" x="1863.63" y="432.6276">+g   : int</text><text fill="#000000" font-family="sans-serif" font-size="14" lengthAdjust="spacing" textLength="64.6611" x="1863.63" y="448.9245">+idx : int</text></g><!--class GridValidator--><g class="entity" data-qualified-name="GridValidator" data-source-line="28" id="ent0005"><rect fill="#F1F1F1" height="88.8906" rx="2.5" ry="2.5" style="stroke:#181818;stroke-width:0.5;" width="490.7686" x="668.21" y="185.18"/><ellipse cx="863.0479" cy="201.18" fill="#ADD1B2" rx="11" ry="11" style="stroke:#181818;stroke-width:1;"/><path d="M866.0166,206.8206 Q865.4385,207.1175 864.7979,207.2581 Q864.1573,207.4144 863.4541,207.4144 Q860.9541,207.4144 859.626,205.7738 Q858.3135,204.1175 858.3135,200.9925 Q858.3135,197.8675 859.626,196.2113 Q860.9541,194.555 863.4541,194.555 Q864.1573,194.555 864.7979,194.7113 Q865.4541,194.8675 866.0166,195.1644 L866.0166,197.8831 Q865.3916,197.305 864.7979,197.0394 Q864.2041,196.7581 863.5791,196.7581 Q862.2354,196.7581 861.5479,197.8363 Q860.8604,198.8988 860.8604,200.9925 Q860.8604,203.0863 861.5479,204.1644 Q862.2354,205.2269 863.5791,205.2269 Q864.2041,205.2269 864.7979,204.9613 Q865.3916,204.68 866.0166,204.1019 L866.0166,206.8206 Z " fill="#000000"/><text fill="#000000" font-family="sans-serif" font-size="14" lengthAdjust="spacing" textLength="92.5928" x="883.5479" y="206.0267">GridValidator</text><line style="stroke:#181818;stroke-width:0.5;" x1="669.21" x2="1157.9786" y1="217.18" y2="217.18"/><text fill="#000000" font-family="sans-serif" font-size="14" lengthAdjust="spacing" textLength="229.4346" x="674.21" y="234.1751">+IsValidGrid(in grid : Grid) : bool</text><text fill="#000000" font-family="sans-serif" font-size="14" lengthAdjust="spacing" textLength="452.5527" x="674.21" y="250.472">+InBounds(in grid : Grid, in p : Cell, in name : string_view) : bool</text><text fill="#000000" font-family="sans-serif" font-size="14" lengthAdjust="spacing" textLength="478.7686" x="674.21" y="266.7689">+IsNotBlocked(in grid : Grid, in p : Cell, in name : string_view) : bool</text></g><!--class GridPrinter--><g class="entity" data-qualified-name="GridPrinter" data-source-line="34" id="ent0006"><rect fill="#F1F1F1" height="88.8906" rx="2.5" ry="2.5" style="stroke:#181818;stroke-width:0.5;" width="456.4316" x="176.38" y="185.18"/><ellipse cx="362.2457" cy="201.18" fill="#ADD1B2" rx="11" ry="11" style="stroke:#181818;stroke-width:1;"/><path d="M365.2145,206.8206 Q364.6363,207.1175 363.9957,207.2581 Q363.3551,207.4144 362.652,207.4144 Q360.152,207.4144 358.8238,205.7738 Q357.5113,204.1175 357.5113,200.9925 Q357.5113,197.8675 358.8238,196.2113 Q360.152,194.555 362.652,194.555 Q363.3551,194.555 363.9957,194.7113 Q364.652,194.8675 365.2145,195.1644 L365.2145,197.8831 Q364.5895,197.305 363.9957,197.0394 Q363.402,196.7581 362.777,196.7581 Q361.4332,196.7581 360.7457,197.8363 Q360.0582,198.8988 360.0582,200.9925 Q360.0582,203.0863 360.7457,204.1644 Q361.4332,205.2269 362.777,205.2269 Q363.402,205.2269 363.9957,204.9613 Q364.5895,204.68 365.2145,204.1019 L365.2145,206.8206 Z " fill="#000000"/><text fill="#000000" font-family="sans-serif" font-size="14" lengthAdjust="spacing" textLength="76.2002" x="382.7457" y="206.0267">GridPrinter</text><line style="stroke:#181818;stroke-width:0.5;" x1="177.38" x2="631.8116" y1="217.18" y2="217.18"/><text fill="#000000" font-family="sans-serif" font-size="14" lengthAdjust="spacing" textLength="215.3594" x="182.38" y="234.1751">+PrintGrid(in grid : Grid) : void</text><text fill="#000000" font-family="sans-serif" font-size="14" lengthAdjust="spacing" textLength="370.7129" x="182.38" y="250.472">+PrintPathCoordinates(in path : vector&lt;Cell&gt;) : void</text><text fill="#000000" font-family="sans-serif" font-size="14" lengthAdjust="spacing" textLength="444.4316" x="182.38" y="266.7689">+PrintGridWithPath(in grid : Grid, in path : vector&lt;Cell&gt;) : void</text></g><!--class AStarSearch--><g class="entity" data-qualified-name="AStarSearch" data-source-line="40" id="ent0007"><rect fill="#F1F1F1" height="96.8906" rx="2.5" ry="2.5" style="stroke:#181818;stroke-width:0.5;" width="605.3184" x="1193.94" y="181.18"/><ellipse cx="1449.0025" cy="197.18" fill="#ADD1B2" rx="11" ry="11" style="stroke:#181818;stroke-width:1;"/><path d="M1451.9713,202.8206 Q1451.3931,203.1175 1450.7525,203.2581 Q1450.1119,203.4144 1449.4088,203.4144 Q1446.9088,203.4144 1445.5806,201.7738 Q1444.2681,200.1175 1444.2681,196.9925 Q1444.2681,193.8675 1445.5806,192.2113 Q1446.9088,190.555 1449.4088,190.555 Q1450.1119,190.555 1450.7525,190.7113 Q1451.4088,190.8675 1451.9713,191.1644 L1451.9713,193.8831 Q1451.3463,193.305 1450.7525,193.0394 Q1450.1588,192.7581 1449.5338,192.7581 Q1448.19,192.7581 1447.5025,193.8363 Q1446.815,194.8988 1446.815,196.9925 Q1446.815,199.0863 1447.5025,200.1644 Q1448.19,201.2269 1449.5338,201.2269 Q1450.1588,201.2269 1450.7525,200.9613 Q1451.3463,200.68 1451.9713,200.1019 L1451.9713,202.8206 Z " fill="#000000"/><text fill="#000000" font-family="sans-serif" font-size="14" lengthAdjust="spacing" textLength="86.6934" x="1469.5025" y="202.0267">AStarSearch</text><line style="stroke:#181818;stroke-width:0.5;" x1="1194.94" x2="1798.2584" y1="213.18" y2="213.18"/><text fill="#000000" font-family="sans-serif" font-size="14" lengthAdjust="spacing" textLength="460.667" x="1199.94" y="230.1751">+Search(in grid : Grid, in start : Cell, in goal : Cell) : vector&lt;Cell&gt;</text><line style="stroke:#181818;stroke-width:1;" x1="1194.94" x2="1798.2584" y1="237.4769" y2="237.4769"/><text fill="#000000" font-family="sans-serif" font-size="14" lengthAdjust="spacing" textLength="263.6211" x="1199.94" y="254.472">-Manhattan(in a : Cell, in b : Cell) : int</text><text fill="#000000" font-family="sans-serif" font-size="14" lengthAdjust="spacing" textLength="593.3184" x="1199.94" y="270.7689">-ReconstructPath(in parent : vector&lt;int&gt;, in endIdx : int, in cols : int) : vector&lt;Cell&gt;</text></g><!--class AStarAlgorithm--><g class="entity" data-qualified-name="AStarAlgorithm" data-source-line="50" id="ent0008"><rect fill="#F1F1F1" height="113.1875" rx="2.5" ry="2.5" style="stroke:#181818;stroke-width:0.5;" width="451.7354" x="687.73" y="7"/><ellipse cx="855.9214" cy="23" fill="#ADD1B2" rx="11" ry="11" style="stroke:#181818;stroke-width:1;"/><path d="M858.8902,28.6406 Q858.312,28.9375 857.6714,29.0781 Q857.0308,29.2344 856.3277,29.2344 Q853.8277,29.2344 852.4995,27.5938 Q851.187,25.9375 851.187,22.8125 Q851.187,19.6875 852.4995,18.0313 Q853.8277,16.375 856.3277,16.375 Q857.0308,16.375 857.6714,16.5313 Q858.3277,16.6875 858.8902,16.9844 L858.8902,19.7031 Q858.2652,19.125 857.6714,18.8594 Q857.0777,18.5781 856.4527,18.5781 Q855.1089,18.5781 854.4214,19.6563 Q853.7339,20.7188 853.7339,22.8125 Q853.7339,24.9063 854.4214,25.9844 Q855.1089,27.0469 856.4527,27.0469 Q857.0777,27.0469 857.6714,26.7813 Q858.2652,26.5 858.8902,25.9219 L858.8902,28.6406 Z " fill="#000000"/><text fill="#000000" font-family="sans-serif" font-size="14" lengthAdjust="spacing" textLength="106.8525" x="876.4214" y="27.8467">AStarAlgorithm</text><line style="stroke:#181818;stroke-width:0.5;" x1="688.73" x2="1138.4654" y1="39" y2="39"/><text fill="#000000" font-family="sans-serif" font-size="14" lengthAdjust="spacing" textLength="439.7354" x="693.73" y="55.9951">+Run(in grid : Grid, in start : Cell, in goal : Cell) : vector&lt;Cell&gt;</text><line style="stroke:#181818;stroke-width:1;" x1="688.73" x2="1138.4654" y1="63.2969" y2="63.2969"/><text fill="#000000" font-family="sans-serif" font-size="14" lengthAdjust="spacing" textLength="193.8193" x="693.73" y="80.292">-m_validator : GridValidator</text><text fill="#000000" font-family="sans-serif" font-size="14" lengthAdjust="spacing" textLength="171.6709" x="693.73" y="96.5889">-m_printer   : GridPrinter</text><text fill="#000000" font-family="sans-serif" font-size="14" lengthAdjust="spacing" textLength="186.1631" x="693.73" y="112.8857">-m_search    : AStarSearch</text></g><!--reverse link AStarAlgorithm to GridValidator--><g class="link" data-entity-1="ent0008" data-entity-2="ent0005" data-link-type="composition" data-source-line="63" id="lnk9"><path codeLine="63" d="M913.6,132.58 C913.6,153.56 913.6,165.07 913.6,184.79" fill="none" id="AStarAlgorithm-backto-GridValidator" style="stroke:#181818;stroke-width:1;"/><polygon fill="#181818" points="913.6,120.58,909.6,126.58,913.6,132.58,917.6,126.58,913.6,120.58" style="stroke:#181818;stroke-width:1;"/></g><!--reverse link AStarAlgorithm to GridPrinter--><g class="link" data-entity-1="ent0008" data-entity-2="ent0006" data-link-type="composition" data-source-line="64" id="lnk10"><path codeLine="64" d="M728.4288,124.2619 C663.3488,145.2419 601.82,165.07 540.63,184.79" fill="none" id="AStarAlgorithm-backto-GridPrinter" style="stroke:#181818;stroke-width:1;"/><polygon fill="#181818" points="739.85,120.58,732.9121,118.6139,728.4288,124.2619,735.3667,126.228,739.85,120.58" style="stroke:#181818;stroke-width:1;"/></g><!--reverse link AStarAlgorithm to AStarSearch--><g class="link" data-entity-1="ent0008" data-entity-2="ent0007" data-link-type="composition" data-source-line="65" id="lnk11"><path codeLine="65" d="M1124.1512,123.8313 C1193.7512,143.4213 1259.65,161.96 1326.66,180.81" fill="none" id="AStarAlgorithm-backto-AStarSearch" style="stroke:#181818;stroke-width:1;"/><polygon fill="#181818" points="1112.6,120.58,1117.2918,126.056,1124.1512,123.8313,1119.4593,118.3552,1112.6,120.58" style="stroke:#181818;stroke-width:1;"/></g><!--link AStarSearch to OpenNode--><g class="link" data-entity-1="ent0007" data-entity-2="ent0004" data-link-type="dependency" data-source-line="68" id="lnk12"><path codeLine="68" d="M1609.18,278.5 C1689.87,312.8 1789.3985,355.1221 1851.7885,381.6521" fill="none" id="AStarSearch-to-OpenNode" style="stroke:#181818;stroke-width:1;stroke-dasharray:7,7;"/><polygon fill="#181818" points="1857.31,384,1850.593,376.7971,1852.7087,382.0434,1847.4624,384.1592,1857.31,384" style="stroke:#181818;stroke-width:1;"/><text fill="#000000" font-family="sans-serif" font-size="13" lengthAdjust="spacing" textLength="29.7832" x="1716.6" y="321.1369">uses</text></g><!--link GridValidator to Grid--><g class="link" data-entity-1="ent0005" data-entity-2="ent0002" data-link-type="dependency" data-source-line="71" id="lnk13"><path codeLine="71" d="M956.61,274.14 C980.76,298.57 1006.8315,324.9533 1032.2015,350.6133" fill="none" id="GridValidator-to-Grid" style="stroke:#181818;stroke-width:1;stroke-dasharray:7,7;"/><polygon fill="#181818" points="1036.42,354.88,1032.9368,345.6677,1032.9046,351.3244,1027.2479,351.2923,1036.42,354.88" style="stroke:#181818;stroke-width:1;"/></g><!--link GridValidator to Cell--><g class="link" data-entity-1="ent0005" data-entity-2="ent0003" data-link-type="dependency" data-source-line="72" id="lnk14"><path codeLine="72" d="M870.34,274.14 C842.1,302.54 809.7503,335.085 782.3003,362.695" fill="none" id="GridValidator-to-Cell" style="stroke:#181818;stroke-width:1;stroke-dasharray:7,7;"/><polygon fill="#181818" points="778.07,366.95,787.2521,363.3878,781.5952,363.4042,781.5788,357.7474,778.07,366.95" style="stroke:#181818;stroke-width:1;"/></g><!--link GridPrinter to Grid--><g class="link" data-entity-1="ent0006" data-entity-2="ent0002" data-link-type="dependency" data-source-line="74" id="lnk15"><path codeLine="74" d="M574.75,274.48 C701.37,307.11 864.6199,349.1825 973.3699,377.2125" fill="none" id="GridPrinter-to-Grid" style="stroke:#181818;stroke-width:1;stroke-dasharray:7,7;"/><polygon fill="#181818" points="979.18,378.71,971.4632,372.5903,974.3382,377.4621,969.4665,380.3371,979.18,378.71" style="stroke:#181818;stroke-width:1;"/></g><!--link GridPrinter to Cell--><g class="link" data-entity-1="ent0006" data-entity-2="ent0003" data-link-type="dependency" data-source-line="75" id="lnk16"><path codeLine="75" d="M487.59,274.37 C552.12,308.37 633.9615,351.5135 686.7715,379.3335" fill="none" id="GridPrinter-to-Cell" style="stroke:#181818;stroke-width:1;stroke-dasharray:7,7;"/><polygon fill="#181818" points="692.08,382.13,685.9816,374.3963,687.6563,379.7996,682.253,381.4743,692.08,382.13" style="stroke:#181818;stroke-width:1;"/></g><!--link AStarSearch to Grid--><g class="link" data-entity-1="ent0007" data-entity-2="ent0002" data-link-type="dependency" data-source-line="77" id="lnk17"><path codeLine="77" d="M1385.38,278.5 C1326.48,303.84 1259.9514,332.4784 1201.4814,357.6384" fill="none" id="AStarSearch-to-Grid" style="stroke:#181818;stroke-width:1;stroke-dasharray:7,7;"/><polygon fill="#181818" points="1195.97,360.01,1205.8182,360.1269,1200.5628,358.0337,1202.656,352.7783,1195.97,360.01" style="stroke:#181818;stroke-width:1;"/></g><!--link AStarSearch to Cell--><g class="link" data-entity-1="ent0007" data-entity-2="ent0003" data-link-type="dependency" data-source-line="78" id="lnk18"><path codeLine="78" d="M1290.22,278.55 C1117.5,318.66 889.7945,371.5427 791.3145,394.4127" fill="none" id="AStarSearch-to-Cell" style="stroke:#181818;stroke-width:1;stroke-dasharray:7,7;"/><polygon fill="#181818" points="785.47,395.77,795.1415,397.6304,790.3404,394.6389,793.3319,389.8378,785.47,395.77" style="stroke:#181818;stroke-width:1;"/></g><!--link AStarAlgorithm to Grid--><g class="link" data-entity-1="ent0008" data-entity-2="ent0002" data-link-type="dependency" data-source-line="80" id="lnk19"><path codeLine="80" d="M1139.75,78.42 C1392.53,96.23 1772.47,130.99 1816.6,181.18 C1845.03,213.52 1844.28,245.09 1816.6,278.07 C1738.64,370.99 1385.3355,396.5566 1201.9455,403.6966" fill="none" id="AStarAlgorithm-to-Grid" style="stroke:#181818;stroke-width:1;stroke-dasharray:7,7;"/><polygon fill="#181818" points="1195.95,403.93,1205.0988,407.5768,1200.9462,403.7355,1204.7876,399.5829,1195.95,403.93" style="stroke:#181818;stroke-width:1;"/></g><!--link AStarAlgorithm to Cell--><g class="link" data-entity-1="ent0008" data-entity-2="ent0003" data-link-type="dependency" data-source-line="81" id="lnk20"><path codeLine="81" d="M687.39,68.17 C490.29,76.66 225.77,102.84 158.6,181.18 C6,359.16 522.8564,397.1328 685.6964,404.6628" fill="none" id="AStarAlgorithm-to-Cell" style="stroke:#181818;stroke-width:1;stroke-dasharray:7,7;"/><polygon fill="#181818" points="691.69,404.94,682.8844,400.5285,686.6953,404.709,682.5148,408.52,691.69,404.94" style="stroke:#181818;stroke-width:1;"/></g><?plantuml-src hLLDZzem4BtdLyojq2rRUaKq4elKYaDt4LJjSUKa0t7NiLFROKkh_UyTEmuaWTr5Qhaay_4UCy_ZYNdWicIQ5P0APipCMisJok8YLNBDVoECevnd25YKTWy55Wbg4qLlOFJ2Zy9VzoK24vmPk88T4nM29PTv3UchWC-QPp2TEaI6cpY6Fn7Kpe-mmzGgFGqFBcqSKv2W06CARpGYlNwWrqIez06pw2aAj7CKWcYDrLLg0-iLQ9W0qH1WxEsqPH-WToNAMqL2dC0t03N0MzkEnRDVmNgwGBEvAaebKLe3W_LgERnSgs-aTCP8Zr3JmdYF2msuXArJRk8pX_HCb19rchnHbSnCB-STLGmb6KulRqXM8DdKEPVR-nt7nowFkLNsfbRxNxWEQZlaak8McuwyzKm_EyMpOzAIsNokbCwuP1PzRoMvN5uzCgwI-1JdsBvpcplysIPU83aKFbjRfjV8T9g7mclZ7A6XLDjMPgkO2FQmzq_DX8_W2vCvivP9HydQyAI5hGTm12kaUrmFRDCNtNOQiIE_kq4UZp9RDFFg7QaIfZPFohbad3-nbD65UGzt901I4Mv0BvjfB-DCR9Mc0oc2agjA_ZyPY_lTuSvCkdSenCimVn3YOHv3rDHdxAEjGxz8c1KAPZcTIyxBLnSYnNjgg4Tfm9AYj61DMCcWaX_KfubwkMz7ervppoGqtPq9jzjhgWaZNXbihKRF89aGUnYGUevY3pyhfDqlAMw6KHjxVHqVeHDFvUZNESrd1bGigxyOBf81IxMYmKWFApBgxZt7vZndtExaewYzKZh9RMUTsg_If_QThTIZNDtihjy1_W80?></g></svg>