<svg xmlns="http://www.w3.org/2000/svg" xmlns:xlink="http://www.w3.org/1999/xlink" contentStyleType="text/css" data-diagram-type="CLASS" height="966px" preserveAspectRatio="none" style="width:2417px;height:966px;background:#FFFFFF;" version="1.1" viewBox="0 0 2417 966" width="2417px" zoomAndPan="magnify"><?plantuml 1.2026.3beta4?><defs/><g><!--class Cell--><g class="entity" data-qualified-name="Cell" data-source-line="12" id="ent0002"><rect fill="#FFFFFF" height="105.1563" rx="2.5" ry="2.5" style="stroke:#000000;stroke-width:0.5;" width="243.5742" x="1320.47" y="838.51"/><ellipse cx="1415.2659" cy="858.6428" fill="#ADD1B2" rx="11" ry="11" style="stroke:#181818;stroke-width:1;"/><path d="M1418.2346,864.2834 Q1417.6565,864.5803 1417.0159,864.7209 Q1416.3753,864.8772 1415.6721,864.8772 Q1413.1721,864.8772 1411.844,863.2366 Q1410.5315,861.5803 1410.5315,858.4553 Q1410.5315,855.3303 1411.844,853.6741 Q1413.1721,852.0178 1415.6721,852.0178 Q1416.3753,852.0178 1417.0159,852.1741 Q1417.6721,852.3303 1418.2346,852.6272 L1418.2346,855.3459 Q1417.6096,854.7678 1417.0159,854.5022 Q1416.4221,854.2209 1415.7971,854.2209 Q1414.4534,854.2209 1413.7659,855.2991 Q1413.0784,856.3616 1413.0784,858.4553 Q1413.0784,860.5491 1413.7659,861.6272 Q1414.4534,862.6897 1415.7971,862.6897 Q1416.4221,862.6897 1417.0159,862.4241 Q1417.6096,862.1428 1418.2346,861.5647 L1418.2346,864.2834 Z " fill="#000000"/><text fill="#000000" font-family="sans-serif" font-size="12" font-style="italic" lengthAdjust="spacing" textLength="49.4824" x="1433.7659" y="854.6487">&#171;struct&#187;</text><text fill="#000000" font-family="sans-serif" font-size="14" lengthAdjust="spacing" textLength="26.168" x="1445.4231" y="870.4739">Cell</text><line style="stroke:#000000;stroke-width:0.5;" x1="1321.47" x2="1563.0442" y1="878.7756" y2="878.7756"/><g data-visibility-modifier="PUBLIC_FIELD"><ellipse cx="1331.47" cy="892.4241" fill="none" rx="3" ry="3" style="stroke:#038048;stroke-width:1;"/></g><text fill="#000000" font-family="sans-serif" font-size="14" lengthAdjust="spacing" textLength="67.1631" x="1340.47" y="895.7707">r : int = 0</text><g data-visibility-modifier="PUBLIC_FIELD"><ellipse cx="1331.47" cy="908.7209" fill="none" rx="3" ry="3" style="stroke:#038048;stroke-width:1;"/></g><text fill="#000000" font-family="sans-serif" font-size="14" lengthAdjust="spacing" textLength="69.1045" x="1340.47" y="912.0676">c : int = 0</text><line style="stroke:#000000;stroke-width:0.5;" x1="1321.47" x2="1563.0442" y1="919.3694" y2="919.3694"/><g data-visibility-modifier="PUBLIC_METHOD"><ellipse cx="1331.47" cy="933.0178" fill="#84BE84" rx="3" ry="3" style="stroke:#038048;stroke-width:1;"/></g><text fill="#000000" font-family="sans-serif" font-size="14" lengthAdjust="spacing" textLength="217.5742" x="1340.47" y="936.3645">operator==(const Cell&amp;) : bool</text></g><!--class Grid--><g class="entity" data-qualified-name="Grid" data-source-line="18" id="ent0003"><rect fill="#FFFFFF" height="105.1563" rx="2.5" ry="2.5" style="stroke:#000000;stroke-width:0.5;" width="165.9863" x="811.27" y="838.51"/><ellipse cx="861.6557" cy="858.6428" fill="#ADD1B2" rx="11" ry="11" style="stroke:#181818;stroke-width:1;"/><path d="M864.6245,864.2834 Q864.0464,864.5803 863.4057,864.7209 Q862.7651,864.8772 862.062,864.8772 Q859.562,864.8772 858.2339,863.2366 Q856.9214,861.5803 856.9214,858.4553 Q856.9214,855.3303 858.2339,853.6741 Q859.562,852.0178 862.062,852.0178 Q862.7651,852.0178 863.4057,852.1741 Q864.062,852.3303 864.6245,852.6272 L864.6245,855.3459 Q863.9995,854.7678 863.4057,854.5022 Q862.812,854.2209 862.187,854.2209 Q860.8432,854.2209 860.1557,855.2991 Q859.4682,856.3616 859.4682,858.4553 Q859.4682,860.5491 860.1557,861.6272 Q860.8432,862.6897 862.187,862.6897 Q862.812,862.6897 863.4057,862.4241 Q863.9995,862.1428 864.6245,861.5647 L864.6245,864.2834 Z " fill="#000000"/><text fill="#000000" font-family="sans-serif" font-size="12" font-style="italic" lengthAdjust="spacing" textLength="60.7148" x="880.1557" y="854.6487">&#171;typedef&#187;</text><text fill="#000000" font-family="sans-serif" font-size="14" lengthAdjust="spacing" textLength="29.3809" x="895.8227" y="870.4739">Grid</text><line style="stroke:#000000;stroke-width:0.5;" x1="812.27" x2="976.2563" y1="878.7756" y2="878.7756"/><text fill="#000000" font-family="sans-serif" font-size="14" lengthAdjust="spacing" textLength="153.9863" x="817.27" y="895.7707">vector&lt;vector&lt;int&gt;&gt;</text><text fill="#000000" font-family="sans-serif" font-size="14" lengthAdjust="spacing" textLength="57.4492" x="817.27" y="912.0676">0 = free</text><text fill="#000000" font-family="sans-serif" font-size="14" lengthAdjust="spacing" textLength="84.1846" x="817.27" y="928.3645">1 = blocked</text><line style="stroke:#000000;stroke-width:0.5;" x1="812.27" x2="976.2563" y1="935.6663" y2="935.6663"/></g><!--class OpenNode--><g class="entity" data-qualified-name="OpenNode" data-source-line="24" id="ent0004"><rect fill="#FFFFFF" height="121.4531" rx="2.5" ry="2.5" style="stroke:#000000;stroke-width:0.5;" width="279.6064" x="1981.46" y="830.36"/><ellipse cx="2080.0479" cy="850.4928" fill="#ADD1B2" rx="11" ry="11" style="stroke:#181818;stroke-width:1;"/><path d="M2083.0166,856.1334 Q2082.4385,856.4303 2081.7979,856.5709 Q2081.1573,856.7272 2080.4541,856.7272 Q2077.9541,856.7272 2076.626,855.0866 Q2075.3135,853.4303 2075.3135,850.3053 Q2075.3135,847.1803 2076.626,845.5241 Q2077.9541,843.8678 2080.4541,843.8678 Q2081.1573,843.8678 2081.7979,844.0241 Q2082.4541,844.1803 2083.0166,844.4772 L2083.0166,847.1959 Q2082.3916,846.6178 2081.7979,846.3522 Q2081.2041,846.0709 2080.5791,846.0709 Q2079.2354,846.0709 2078.5479,847.1491 Q2077.8604,848.2116 2077.8604,850.3053 Q2077.8604,852.3991 2078.5479,853.4772 Q2079.2354,854.5397 2080.5791,854.5397 Q2081.2041,854.5397 2081.7979,854.2741 Q2082.3916,853.9928 2083.0166,853.4147 L2083.0166,856.1334 Z " fill="#000000"/><text fill="#000000" font-family="sans-serif" font-size="12" font-style="italic" lengthAdjust="spacing" textLength="49.4824" x="2112.772" y="846.4987">&#171;struct&#187;</text><text fill="#000000" font-family="sans-serif" font-size="14" lengthAdjust="spacing" textLength="73.9307" x="2100.5479" y="862.3239">OpenNode</text><line style="stroke:#000000;stroke-width:0.5;" x1="1982.46" x2="2260.0664" y1="870.6256" y2="870.6256"/><g data-visibility-modifier="PUBLIC_FIELD"><ellipse cx="1992.46" cy="884.2741" fill="none" rx="3" ry="3" style="stroke:#038048;stroke-width:1;"/></g><text fill="#000000" font-family="sans-serif" font-size="14" lengthAdjust="spacing" textLength="66.3359" x="2001.46" y="887.6207">f : int = 0</text><g data-visibility-modifier="PUBLIC_FIELD"><ellipse cx="1992.46" cy="900.5709" fill="none" rx="3" ry="3" style="stroke:#038048;stroke-width:1;"/></g><text fill="#000000" font-family="sans-serif" font-size="14" lengthAdjust="spacing" textLength="70.2939" x="2001.46" y="903.9176">g : int = 0</text><g data-visibility-modifier="PUBLIC_FIELD"><ellipse cx="1992.46" cy="916.8678" fill="none" rx="3" ry="3" style="stroke:#038048;stroke-width:1;"/></g><text fill="#000000" font-family="sans-serif" font-size="14" lengthAdjust="spacing" textLength="82.4688" x="2001.46" y="920.2145">idx : int = 0</text><line style="stroke:#000000;stroke-width:0.5;" x1="1982.46" x2="2260.0664" y1="927.5162" y2="927.5162"/><g data-visibility-modifier="PUBLIC_METHOD"><ellipse cx="1992.46" cy="941.1647" fill="#84BE84" rx="3" ry="3" style="stroke:#038048;stroke-width:1;"/></g><text fill="#000000" font-family="sans-serif" font-size="14" lengthAdjust="spacing" textLength="253.6064" x="2001.46" y="944.5114">operator&gt;(const OpenNode&amp;) : bool</text></g><!--class GridValidator--><g class="entity" data-qualified-name="GridValidator" data-source-line="35" id="ent0005"><rect fill="#FFFFFF" height="113.1875" rx="2.5" ry="2.5" style="stroke:#000000;stroke-width:0.5;" width="441.3994" x="673.56" y="591.98"/><ellipse cx="843.7133" cy="607.98" fill="#ADD1B2" rx="11" ry="11" style="stroke:#181818;stroke-width:1;"/><path d="M846.6821,613.6206 Q846.1039,613.9175 845.4633,614.0581 Q844.8227,614.2144 844.1196,614.2144 Q841.6196,614.2144 840.2914,612.5738 Q838.9789,610.9175 838.9789,607.7925 Q838.9789,604.6675 840.2914,603.0113 Q841.6196,601.355 844.1196,601.355 Q844.8227,601.355 845.4633,601.5113 Q846.1196,601.6675 846.6821,601.9644 L846.6821,604.6831 Q846.0571,604.105 845.4633,603.8394 Q844.8696,603.5581 844.2446,603.5581 Q842.9008,603.5581 842.2133,604.6363 Q841.5258,605.6988 841.5258,607.7925 Q841.5258,609.8863 842.2133,610.9644 Q842.9008,612.0269 844.2446,612.0269 Q844.8696,612.0269 845.4633,611.7613 Q846.0571,611.48 846.6821,610.9019 L846.6821,613.6206 Z " fill="#000000"/><text fill="#000000" font-family="sans-serif" font-size="14" lengthAdjust="spacing" textLength="92.5928" x="864.2133" y="612.8267">GridValidator</text><line style="stroke:#000000;stroke-width:0.5;" x1="674.56" x2="1113.9594" y1="623.98" y2="623.98"/><line style="stroke:#000000;stroke-width:0.5;" x1="674.56" x2="1113.9594" y1="631.98" y2="631.98"/><g data-visibility-modifier="PUBLIC_METHOD"><ellipse cx="684.56" cy="645.6284" fill="#84BE84" rx="3" ry="3" style="stroke:#038048;stroke-width:1;"/></g><text fill="#000000" font-family="sans-serif" font-size="14" lengthAdjust="spacing" textLength="200.4912" x="693.56" y="648.9751">IsValidGrid(grid : Grid) : bool</text><g data-visibility-modifier="PUBLIC_METHOD"><ellipse cx="684.56" cy="661.9253" fill="#84BE84" rx="3" ry="3" style="stroke:#038048;stroke-width:1;"/></g><text fill="#000000" font-family="sans-serif" font-size="14" lengthAdjust="spacing" textLength="389.1836" x="693.56" y="665.272">InBounds(grid : Grid, p : Cell, name : string_view) : bool</text><g data-visibility-modifier="PUBLIC_METHOD"><ellipse cx="684.56" cy="678.2222" fill="#84BE84" rx="3" ry="3" style="stroke:#038048;stroke-width:1;"/></g><text fill="#000000" font-family="sans-serif" font-size="14" lengthAdjust="spacing" textLength="415.3994" x="693.56" y="681.5689">IsNotBlocked(grid : Grid, p : Cell, name : string_view) : bool</text><g data-visibility-modifier="PUBLIC_METHOD"><ellipse cx="684.56" cy="694.5191" fill="#84BE84" rx="3" ry="3" style="stroke:#038048;stroke-width:1;"/></g><text fill="#000000" font-family="sans-serif" font-size="14" lengthAdjust="spacing" textLength="407.7568" x="693.56" y="697.8657">ValidateCell(grid : Grid, p : Cell, name : string_view) : bool</text></g><!--class GridPrinter--><g class="entity" data-qualified-name="GridPrinter" data-source-line="42" id="ent0006"><rect fill="#FFFFFF" height="96.8906" rx="2.5" ry="2.5" style="stroke:#000000;stroke-width:0.5;" width="584.1748" x="1150.17" y="600.13"/><ellipse cx="1399.9073" cy="616.13" fill="#ADD1B2" rx="11" ry="11" style="stroke:#181818;stroke-width:1;"/><path d="M1402.8761,621.7706 Q1402.2979,622.0675 1401.6573,622.2081 Q1401.0167,622.3644 1400.3136,622.3644 Q1397.8136,622.3644 1396.4854,620.7237 Q1395.1729,619.0675 1395.1729,615.9425 Q1395.1729,612.8175 1396.4854,611.1612 Q1397.8136,609.505 1400.3136,609.505 Q1401.0167,609.505 1401.6573,609.6612 Q1402.3136,609.8175 1402.8761,610.1144 L1402.8761,612.8331 Q1402.2511,612.255 1401.6573,611.9894 Q1401.0636,611.7081 1400.4386,611.7081 Q1399.0948,611.7081 1398.4073,612.7862 Q1397.7198,613.8487 1397.7198,615.9425 Q1397.7198,618.0362 1398.4073,619.1144 Q1399.0948,620.1769 1400.4386,620.1769 Q1401.0636,620.1769 1401.6573,619.9112 Q1402.2511,619.63 1402.8761,619.0519 L1402.8761,621.7706 Z " fill="#000000"/><text fill="#000000" font-family="sans-serif" font-size="14" lengthAdjust="spacing" textLength="76.2002" x="1420.4073" y="620.9767">GridPrinter</text><line style="stroke:#000000;stroke-width:0.5;" x1="1151.17" x2="1733.3448" y1="632.13" y2="632.13"/><line style="stroke:#000000;stroke-width:0.5;" x1="1151.17" x2="1733.3448" y1="640.13" y2="640.13"/><g data-visibility-modifier="PUBLIC_METHOD"><ellipse cx="1161.17" cy="653.7784" fill="#84BE84" rx="3" ry="3" style="stroke:#038048;stroke-width:1;"/></g><text fill="#000000" font-family="sans-serif" font-size="14" lengthAdjust="spacing" textLength="346.3154" x="1170.17" y="657.1251">PrintGrid(grid : Grid, start : Cell, goal : Cell) : void</text><g data-visibility-modifier="PUBLIC_METHOD"><ellipse cx="1161.17" cy="670.0753" fill="#84BE84" rx="3" ry="3" style="stroke:#038048;stroke-width:1;"/></g><text fill="#000000" font-family="sans-serif" font-size="14" lengthAdjust="spacing" textLength="341.7695" x="1170.17" y="673.422">PrintPathCoordinates(path : vector&lt;Cell&gt;) : void</text><g data-visibility-modifier="PUBLIC_METHOD"><ellipse cx="1161.17" cy="686.3722" fill="#84BE84" rx="3" ry="3" style="stroke:#038048;stroke-width:1;"/></g><text fill="#000000" font-family="sans-serif" font-size="14" lengthAdjust="spacing" textLength="558.1748" x="1170.17" y="689.7189">PrintGridWithPath(grid : Grid, path : vector&lt;Cell&gt;, start : Cell, goal : Cell) : void</text></g><!--class AStarSearch--><g class="entity" data-qualified-name="AStarSearch" data-source-line="48" id="ent0007"><rect fill="#FFFFFF" height="96.8906" rx="2.5" ry="2.5" style="stroke:#000000;stroke-width:0.5;" width="562.6279" x="1839.95" y="600.13"/><ellipse cx="2073.6673" cy="616.13" fill="#ADD1B2" rx="11" ry="11" style="stroke:#181818;stroke-width:1;"/><path d="M2076.636,621.7706 Q2076.0579,622.0675 2075.4173,622.2081 Q2074.7767,622.3644 2074.0735,622.3644 Q2071.5735,622.3644 2070.2454,620.7237 Q2068.9329,619.0675 2068.9329,615.9425 Q2068.9329,612.8175 2070.2454,611.1612 Q2071.5735,609.505 2074.0735,609.505 Q2074.7767,609.505 2075.4173,609.6612 Q2076.0735,609.8175 2076.636,610.1144 L2076.636,612.8331 Q2076.011,612.255 2075.4173,611.9894 Q2074.8235,611.7081 2074.1985,611.7081 Q2072.8548,611.7081 2072.1673,612.7862 Q2071.4798,613.8487 2071.4798,615.9425 Q2071.4798,618.0362 2072.1673,619.1144 Q2072.8548,620.1769 2074.1985,620.1769 Q2074.8235,620.1769 2075.4173,619.9112 Q2076.011,619.63 2076.636,619.0519 L2076.636,621.7706 Z " fill="#000000"/><text fill="#000000" font-family="sans-serif" font-size="14" lengthAdjust="spacing" textLength="86.6934" x="2094.1673" y="620.9767">AStarSearch</text><line style="stroke:#000000;stroke-width:0.5;" x1="1840.95" x2="2401.5779" y1="632.13" y2="632.13"/><line style="stroke:#000000;stroke-width:0.5;" x1="1840.95" x2="2401.5779" y1="640.13" y2="640.13"/><g data-visibility-modifier="PUBLIC_METHOD"><ellipse cx="1850.95" cy="653.7784" fill="#84BE84" rx="3" ry="3" style="stroke:#038048;stroke-width:1;"/></g><text fill="#000000" font-family="sans-serif" font-size="14" lengthAdjust="spacing" textLength="397.2979" x="1859.95" y="657.1251">Search(grid : Grid, start : Cell, goal : Cell) : vector&lt;Cell&gt;</text><g data-visibility-modifier="PRIVATE_METHOD"><rect fill="#F24D5C" height="6" style="stroke:#C82930;stroke-width:1;" width="6" x="1847.95" y="667.0753"/></g><text fill="#000000" font-family="sans-serif" font-size="14" lengthAdjust="spacing" textLength="224.1436" x="1859.95" y="673.422">Manhattan(a : Cell, b : Cell) : int</text><g data-visibility-modifier="PRIVATE_METHOD"><rect fill="#F24D5C" height="6" style="stroke:#C82930;stroke-width:1;" width="6" x="1847.95" y="683.3722"/></g><text fill="#000000" font-family="sans-serif" font-size="14" lengthAdjust="spacing" textLength="536.6279" x="1859.95" y="689.7189">ReconstructPath(parent : vector&lt;int&gt;, endIdx : int, cols : int) : vector&lt;Cell&gt;</text></g><!--class AStarAlgorithm--><g class="entity" data-qualified-name="AStarAlgorithm" data-source-line="54" id="ent0008"><rect fill="#FFFFFF" height="113.1875" rx="2.5" ry="2.5" style="stroke:#000000;stroke-width:0.5;" width="402.3662" x="967.08" y="353.61"/><ellipse cx="1110.5868" cy="369.61" fill="#ADD1B2" rx="11" ry="11" style="stroke:#181818;stroke-width:1;"/><path d="M1113.5556,375.2506 Q1112.9775,375.5475 1112.3368,375.6881 Q1111.6962,375.8444 1110.9931,375.8444 Q1108.4931,375.8444 1107.165,374.2037 Q1105.8525,372.5475 1105.8525,369.4225 Q1105.8525,366.2975 1107.165,364.6412 Q1108.4931,362.985 1110.9931,362.985 Q1111.6962,362.985 1112.3368,363.1412 Q1112.9931,363.2975 1113.5556,363.5944 L1113.5556,366.3131 Q1112.9306,365.735 1112.3368,365.4694 Q1111.7431,365.1881 1111.1181,365.1881 Q1109.7743,365.1881 1109.0868,366.2662 Q1108.3993,367.3287 1108.3993,369.4225 Q1108.3993,371.5162 1109.0868,372.5944 Q1109.7743,373.6569 1111.1181,373.6569 Q1111.7431,373.6569 1112.3368,373.3912 Q1112.9306,373.11 1113.5556,372.5319 L1113.5556,375.2506 Z " fill="#000000"/><text fill="#000000" font-family="sans-serif" font-size="14" lengthAdjust="spacing" textLength="106.8525" x="1131.0868" y="374.4567">AStarAlgorithm</text><line style="stroke:#000000;stroke-width:0.5;" x1="968.08" x2="1368.4462" y1="385.61" y2="385.61"/><g data-visibility-modifier="PRIVATE_FIELD"><rect fill="none" height="6" style="stroke:#C82930;stroke-width:1;" width="6" x="975.08" y="396.2584"/></g><text fill="#000000" font-family="sans-serif" font-size="14" lengthAdjust="spacing" textLength="188.7676" x="987.08" y="402.6051">m_validator : GridValidator</text><g data-visibility-modifier="PRIVATE_FIELD"><rect fill="none" height="6" style="stroke:#C82930;stroke-width:1;" width="6" x="975.08" y="412.5553"/></g><text fill="#000000" font-family="sans-serif" font-size="14" lengthAdjust="spacing" textLength="157.7188" x="987.08" y="418.902">m_printer : GridPrinter</text><g data-visibility-modifier="PRIVATE_FIELD"><rect fill="none" height="6" style="stroke:#C82930;stroke-width:1;" width="6" x="975.08" y="428.8522"/></g><text fill="#000000" font-family="sans-serif" font-size="14" lengthAdjust="spacing" textLength="167.7607" x="987.08" y="435.1989">m_search : AStarSearch</text><line style="stroke:#000000;stroke-width:0.5;" x1="968.08" x2="1368.4462" y1="442.5006" y2="442.5006"/><g data-visibility-modifier="PUBLIC_METHOD"><ellipse cx="978.08" cy="456.1491" fill="#84BE84" rx="3" ry="3" style="stroke:#038048;stroke-width:1;"/></g><text fill="#000000" font-family="sans-serif" font-size="14" lengthAdjust="spacing" textLength="376.3662" x="987.08" y="459.4957">Run(grid : Grid, start : Cell, goal : Cell) : vector&lt;Cell&gt;</text></g><!--class GridBuilder--><g class="entity" data-qualified-name="GridBuilder" data-source-line="61" id="ent0009"><rect fill="#FFFFFF" height="243.5625" rx="2.5" ry="2.5" style="stroke:#000000;stroke-width:0.5;" width="560.5225" x="7" y="526.79"/><ellipse cx="243.5645" cy="542.79" fill="#ADD1B2" rx="11" ry="11" style="stroke:#181818;stroke-width:1;"/><path d="M246.5332,548.4306 Q245.9551,548.7275 245.3145,548.8681 Q244.6738,549.0244 243.9707,549.0244 Q241.4707,549.0244 240.1426,547.3838 Q238.8301,545.7275 238.8301,542.6025 Q238.8301,539.4775 240.1426,537.8213 Q241.4707,536.165 243.9707,536.165 Q244.6738,536.165 245.3145,536.3213 Q245.9707,536.4775 246.5332,536.7744 L246.5332,539.4931 Q245.9082,538.915 245.3145,538.6494 Q244.7207,538.3681 244.0957,538.3681 Q242.752,538.3681 242.0645,539.4463 Q241.377,540.5088 241.377,542.6025 Q241.377,544.6963 242.0645,545.7744 Q242.752,546.8369 244.0957,546.8369 Q244.7207,546.8369 245.3145,546.5713 Q245.9082,546.29 246.5332,545.7119 L246.5332,548.4306 Z " fill="#000000"/><text fill="#000000" font-family="sans-serif" font-size="14" lengthAdjust="spacing" textLength="78.8936" x="264.0645" y="547.6367">GridBuilder</text><line style="stroke:#000000;stroke-width:0.5;" x1="8" x2="566.5225" y1="558.79" y2="558.79"/><g data-visibility-modifier="PRIVATE_FIELD"><rect fill="none" height="6" style="stroke:#C82930;stroke-width:1;" width="6" x="15" y="569.4384"/></g><text fill="#000000" font-family="sans-serif" font-size="14" lengthAdjust="spacing" textLength="91.0547" x="27" y="575.7851">m_grid : Grid</text><g data-visibility-modifier="PRIVATE_FIELD"><rect fill="none" height="6" style="stroke:#C82930;stroke-width:1;" width="6" x="15" y="585.7353"/></g><text fill="#000000" font-family="sans-serif" font-size="14" lengthAdjust="spacing" textLength="93.0303" x="27" y="592.082">m_start : Cell</text><g data-visibility-modifier="PRIVATE_FIELD"><rect fill="none" height="6" style="stroke:#C82930;stroke-width:1;" width="6" x="15" y="602.0322"/></g><text fill="#000000" font-family="sans-serif" font-size="14" lengthAdjust="spacing" textLength="90.3438" x="27" y="608.3789">m_goal : Cell</text><line style="stroke:#000000;stroke-width:0.5;" x1="8" x2="566.5225" y1="615.6806" y2="615.6806"/><g data-visibility-modifier="PUBLIC_METHOD"><ellipse cx="18" cy="629.3291" fill="#84BE84" rx="3" ry="3" style="stroke:#038048;stroke-width:1;"/></g><text fill="#000000" font-family="sans-serif" font-size="14" lengthAdjust="spacing" textLength="89.8174" x="27" y="632.6757">GridBuilder()</text><g data-visibility-modifier="PUBLIC_METHOD"><ellipse cx="18" cy="645.6259" fill="#84BE84" rx="3" ry="3" style="stroke:#038048;stroke-width:1;"/></g><text fill="#000000" font-family="sans-serif" font-size="14" lengthAdjust="spacing" textLength="534.5225" x="27" y="648.9726">GridBuilder(rows : int, cols : int, start : Cell, goal : Cell, walls : vector&lt;Cell&gt;)</text><g data-visibility-modifier="PUBLIC_METHOD"><ellipse cx="18" cy="661.9228" fill="#84BE84" rx="3" ry="3" style="stroke:#038048;stroke-width:1;"/></g><text fill="#000000" font-family="sans-serif" font-size="14" lengthAdjust="spacing" textLength="357.9707" x="27" y="665.2695">GridBuilder(rows : int, cols : int, wallDensity : float)</text><g data-visibility-modifier="PUBLIC_METHOD"><ellipse cx="18" cy="678.2197" fill="#84BE84" rx="3" ry="3" style="stroke:#038048;stroke-width:1;"/></g><text fill="#000000" font-family="sans-serif" font-size="14" lengthAdjust="spacing" text-decoration="underline" textLength="323.832" x="27" y="681.5664">BlockedGoal(rows : int, cols : int) : GridBuilder</text><g data-visibility-modifier="PUBLIC_METHOD"><ellipse cx="18" cy="694.5166" fill="#84BE84" rx="3" ry="3" style="stroke:#038048;stroke-width:1;"/></g><text fill="#000000" font-family="sans-serif" font-size="14" lengthAdjust="spacing" text-decoration="underline" textLength="325.1924" x="27" y="697.8632">Unreachable(rows : int, cols : int) : GridBuilder</text><g data-visibility-modifier="PUBLIC_METHOD"><ellipse cx="18" cy="710.8134" fill="#84BE84" rx="3" ry="3" style="stroke:#038048;stroke-width:1;"/></g><text fill="#000000" font-family="sans-serif" font-size="14" lengthAdjust="spacing" textLength="108.2539" x="27" y="714.1601">GetGrid() : Grid</text><g data-visibility-modifier="PUBLIC_METHOD"><ellipse cx="18" cy="727.1103" fill="#84BE84" rx="3" ry="3" style="stroke:#038048;stroke-width:1;"/></g><text fill="#000000" font-family="sans-serif" font-size="14" lengthAdjust="spacing" textLength="109.8604" x="27" y="730.457">GetStart() : Cell</text><g data-visibility-modifier="PUBLIC_METHOD"><ellipse cx="18" cy="743.4072" fill="#84BE84" rx="3" ry="3" style="stroke:#038048;stroke-width:1;"/></g><text fill="#000000" font-family="sans-serif" font-size="14" lengthAdjust="spacing" textLength="107.543" x="27" y="746.7539">GetGoal() : Cell</text><g data-visibility-modifier="PRIVATE_METHOD"><rect fill="#F24D5C" height="6" style="stroke:#C82930;stroke-width:1;" width="6" x="15" y="756.7041"/></g><text fill="#000000" font-family="sans-serif" font-size="14" lengthAdjust="spacing" textLength="254.8438" x="27" y="763.0507">InitEmpty(rows : int, cols : int) : void</text></g><!--class TestAStarAlgorithm--><g class="entity" data-qualified-name="TestAStarAlgorithm" data-source-line="76" id="ent0010"><rect fill="#FFFFFF" height="154.0469" rx="2.5" ry="2.5" style="stroke:#000000;stroke-width:0.5;" width="230.6064" x="749.96" y="139.56"/><ellipse cx="792.7725" cy="159.6928" fill="#ADD1B2" rx="11" ry="11" style="stroke:#181818;stroke-width:1;"/><path d="M795.7413,165.3334 Q795.1632,165.6303 794.5225,165.7709 Q793.8819,165.9272 793.1788,165.9272 Q790.6788,165.9272 789.3507,164.2866 Q788.0382,162.6303 788.0382,159.5053 Q788.0382,156.3803 789.3507,154.7241 Q790.6788,153.0678 793.1788,153.0678 Q793.8819,153.0678 794.5225,153.2241 Q795.1788,153.3803 795.7413,153.6772 L795.7413,156.3959 Q795.1163,155.8178 794.5225,155.5522 Q793.9288,155.2709 793.3038,155.2709 Q791.96,155.2709 791.2725,156.3491 Q790.585,157.4116 790.585,159.5053 Q790.585,161.5991 791.2725,162.6772 Q791.96,163.7397 793.3038,163.7397 Q793.9288,163.7397 794.5225,163.4741 Q795.1163,163.1928 795.7413,162.6147 L795.7413,165.3334 Z " fill="#000000"/><text fill="#000000" font-family="sans-serif" font-size="12" font-style="italic" lengthAdjust="spacing" textLength="69.9551" x="846.376" y="155.6987">&#171;functions&#187;</text><text fill="#000000" font-family="sans-serif" font-size="14" lengthAdjust="spacing" textLength="136.8008" x="812.9531" y="171.5239">TestAStarAlgorithm</text><line style="stroke:#000000;stroke-width:0.5;" x1="750.96" x2="979.5664" y1="179.8256" y2="179.8256"/><line style="stroke:#000000;stroke-width:0.5;" x1="750.96" x2="979.5664" y1="187.8256" y2="187.8256"/><g data-visibility-modifier="PUBLIC_METHOD"><ellipse cx="760.96" cy="201.4741" fill="#84BE84" rx="3" ry="3" style="stroke:#038048;stroke-width:1;"/></g><text fill="#000000" font-family="sans-serif" font-size="14" lengthAdjust="spacing" textLength="136.2402" x="769.96" y="204.8207">RunAllTests() : void</text><g data-visibility-modifier="PUBLIC_METHOD"><ellipse cx="760.96" cy="217.7709" fill="#84BE84" rx="3" ry="3" style="stroke:#038048;stroke-width:1;"/></g><text fill="#000000" font-family="sans-serif" font-size="14" lengthAdjust="spacing" textLength="164.6504" x="769.96" y="221.1176">TestDefaultGrid() : void</text><g data-visibility-modifier="PUBLIC_METHOD"><ellipse cx="760.96" cy="234.0678" fill="#84BE84" rx="3" ry="3" style="stroke:#038048;stroke-width:1;"/></g><text fill="#000000" font-family="sans-serif" font-size="14" lengthAdjust="spacing" textLength="201.8652" x="769.96" y="237.4145">TestManualWallsGrid() : void</text><g data-visibility-modifier="PUBLIC_METHOD"><ellipse cx="760.96" cy="250.3647" fill="#84BE84" rx="3" ry="3" style="stroke:#038048;stroke-width:1;"/></g><text fill="#000000" font-family="sans-serif" font-size="14" lengthAdjust="spacing" textLength="146.002" x="769.96" y="253.7114">TestAutoGrid() : void</text><g data-visibility-modifier="PUBLIC_METHOD"><ellipse cx="760.96" cy="266.6616" fill="#84BE84" rx="3" ry="3" style="stroke:#038048;stroke-width:1;"/></g><text fill="#000000" font-family="sans-serif" font-size="14" lengthAdjust="spacing" textLength="171.3633" x="769.96" y="270.0082">TestBlockedGoal() : void</text><g data-visibility-modifier="PUBLIC_METHOD"><ellipse cx="760.96" cy="282.9584" fill="#84BE84" rx="3" ry="3" style="stroke:#038048;stroke-width:1;"/></g><text fill="#000000" font-family="sans-serif" font-size="14" lengthAdjust="spacing" textLength="204.6064" x="769.96" y="286.3051">TestUnreachableGoal() : void</text></g><!--class main--><g class="entity" data-qualified-name="main" data-source-line="85" id="ent0011"><rect fill="#FFFFFF" height="72.5625" rx="2.5" ry="2.5" style="stroke:#000000;stroke-width:0.5;" width="105.0156" x="812.75" y="7"/><ellipse cx="827.75" cy="27.1328" fill="#ADD1B2" rx="11" ry="11" style="stroke:#181818;stroke-width:1;"/><path d="M830.7188,32.7734 Q830.1406,33.0703 829.5,33.2109 Q828.8594,33.3672 828.1563,33.3672 Q825.6563,33.3672 824.3281,31.7266 Q823.0156,30.0703 823.0156,26.9453 Q823.0156,23.8203 824.3281,22.1641 Q825.6563,20.5078 828.1563,20.5078 Q828.8594,20.5078 829.5,20.6641 Q830.1563,20.8203 830.7188,21.1172 L830.7188,23.8359 Q830.0938,23.2578 829.5,22.9922 Q828.9063,22.7109 828.2813,22.7109 Q826.9375,22.7109 826.25,23.7891 Q825.5625,24.8516 825.5625,26.9453 Q825.5625,29.0391 826.25,30.1172 Q826.9375,31.1797 828.2813,31.1797 Q828.9063,31.1797 829.5,30.9141 Q830.0938,30.6328 830.7188,30.0547 L830.7188,32.7734 Z " fill="#000000"/><text fill="#000000" font-family="sans-serif" font-size="12" font-style="italic" lengthAdjust="spacing" textLength="77.0156" x="839.75" y="23.1387">&#171;entrypoint&#187;</text><text fill="#000000" font-family="sans-serif" font-size="14" lengthAdjust="spacing" textLength="34.9795" x="860.7681" y="38.9639">main</text><line style="stroke:#000000;stroke-width:0.5;" x1="813.75" x2="916.7656" y1="47.2656" y2="47.2656"/><line style="stroke:#000000;stroke-width:0.5;" x1="813.75" x2="916.7656" y1="55.2656" y2="55.2656"/><g data-visibility-modifier="PUBLIC_METHOD"><ellipse cx="823.75" cy="68.9141" fill="#84BE84" rx="3" ry="3" style="stroke:#038048;stroke-width:1;"/></g><text fill="#000000" font-family="sans-serif" font-size="14" lengthAdjust="spacing" textLength="77.7725" x="832.75" y="72.2607">main() : int</text></g><!--reverse link AStarAlgorithm to GridValidator--><g class="link" data-entity-1="ent0008" data-entity-2="ent0005" data-link-type="composition" data-source-line="94" id="lnk12"><path codeLine="94" d="M1041.02,478.99 C1041.02,516.73 1041.02,554.08 1041.02,591.8" fill="none" id="AStarAlgorithm-backto-GridValidator" style="stroke:#000000;stroke-width:1;"/><polygon fill="#000000" points="1041.02,466.99,1037.02,472.99,1041.02,478.99,1045.02,472.99,1041.02,466.99" style="stroke:#000000;stroke-width:1;"/><text fill="#000000" font-family="sans-serif" font-size="13" lengthAdjust="spacing" textLength="76.6606" x="964.02" y="525.4669">m_validator</text></g><!--reverse link AStarAlgorithm to GridPrinter--><g class="link" data-entity-1="ent0008" data-entity-2="ent0006" data-link-type="composition" data-source-line="95" id="lnk13"><path codeLine="95" d="M1259.81,478.99 C1259.81,519.48 1259.81,561.34 1259.81,599.87" fill="none" id="AStarAlgorithm-backto-GridPrinter" style="stroke:#000000;stroke-width:1;"/><polygon fill="#000000" points="1259.81,466.99,1255.81,472.99,1259.81,478.99,1263.81,472.99,1259.81,466.99" style="stroke:#000000;stroke-width:1;"/><text fill="#000000" font-family="sans-serif" font-size="13" lengthAdjust="spacing" textLength="63.0513" x="1195.81" y="529.4969">m_printer</text></g><!--reverse link AStarAlgorithm to AStarSearch--><g class="link" data-entity-1="ent0008" data-entity-2="ent0007" data-link-type="composition" data-source-line="96" id="lnk14"><path codeLine="96" d="M1381.79,410.81 C1661.46,410.81 2121.26,410.81 2121.26,410.81 C2121.26,410.81 2121.26,530.32 2121.26,599.89" fill="none" id="AStarAlgorithm-backto-AStarSearch" style="stroke:#000000;stroke-width:1;"/><polygon fill="#000000" points="1369.79,410.81,1375.79,414.81,1381.79,410.81,1375.79,406.81,1369.79,410.81" style="stroke:#000000;stroke-width:1;"/><text fill="#000000" font-family="sans-serif" font-size="13" lengthAdjust="spacing" textLength="62.6323" x="1777.06" y="406.8769">m_search</text></g><!--reverse link GridBuilder to Grid--><g class="link" data-entity-1="ent0009" data-entity-2="ent0003" data-link-type="composition" data-source-line="99" id="lnk15"><path codeLine="99" d="M579.94,754.81 C722,754.81 852.76,754.81 852.76,754.81 C852.76,754.81 852.76,799.74 852.76,838.01" fill="none" id="GridBuilder-backto-Grid" style="stroke:#000000;stroke-width:1;"/><polygon fill="#000000" points="567.94,754.81,573.94,758.81,579.94,754.81,573.94,750.81,567.94,754.81" style="stroke:#000000;stroke-width:1;"/><text fill="#000000" font-family="sans-serif" font-size="13" lengthAdjust="spacing" textLength="44.624" x="706.95" y="750.8769">m_grid</text></g><!--reverse link GridBuilder to Cell--><g class="link" data-entity-1="ent0009" data-entity-2="ent0002" data-link-type="composition" data-source-line="100" id="lnk16"><path codeLine="100" d="M579.75,737.81 C909.87,737.81 1401.67,737.81 1401.67,737.81 C1401.67,737.81 1401.67,794 1401.67,838.34" fill="none" id="GridBuilder-backto-Cell" style="stroke:#000000;stroke-width:1;"/><polygon fill="#000000" points="567.75,737.81,573.75,741.81,579.75,737.81,573.75,733.81,567.75,737.81" style="stroke:#000000;stroke-width:1;"/><text fill="#000000" font-family="sans-serif" font-size="13" lengthAdjust="spacing" textLength="109.0337" x="924.97" y="733.8769">m_start / m_goal</text></g><!--link AStarAlgorithm to Grid--><g class="link" data-entity-1="ent0008" data-entity-2="ent0003" data-link-type="dependency" data-source-line="103" id="lnk17"><path codeLine="103" d="M1126.7,467.14 C1126.7,588.13 1126.7,859.81 1126.7,859.81 C1126.7,859.81 1050.22,859.81 983.52,859.81" fill="none" id="AStarAlgorithm-to-Grid" style="stroke:#000000;stroke-width:1;stroke-dasharray:7,7;"/><polygon fill="#000000" points="977.52,859.81,986.52,863.81,982.52,859.81,986.52,855.81,977.52,859.81" style="stroke:#000000;stroke-width:1;"/><text fill="#000000" font-family="sans-serif" font-size="13" lengthAdjust="spacing" textLength="29.7832" x="1096.7" y="734.1369">uses</text></g><!--link AStarAlgorithm to Cell--><g class="link" data-entity-1="ent0008" data-entity-2="ent0002" data-link-type="dependency" data-source-line="104" id="lnk18"><path codeLine="104" d="M1138.44,467.07 C1138.44,596.48 1138.44,901.81 1138.44,901.81 C1138.44,901.81 1229.57,901.81 1314,901.81" fill="none" id="AStarAlgorithm-to-Cell" style="stroke:#000000;stroke-width:1;stroke-dasharray:7,7;"/><polygon fill="#000000" points="1320,901.81,1311,897.81,1315,901.81,1311,905.81,1320,901.81" style="stroke:#000000;stroke-width:1;"/><text fill="#000000" font-family="sans-serif" font-size="13" lengthAdjust="spacing" textLength="29.7832" x="1108.44" y="771.2869">uses</text></g><!--link GridValidator to Grid--><g class="link" data-entity-1="ent0005" data-entity-2="ent0003" data-link-type="dependency" data-source-line="107" id="lnk19"><path codeLine="107" d="M894.26,705.43 C894.26,745.61 894.26,793.08 894.26,832.31" fill="none" id="GridValidator-to-Grid" style="stroke:#000000;stroke-width:1;stroke-dasharray:7,7;"/><polygon fill="#000000" points="894.26,838.31,898.26,829.31,894.26,833.31,890.26,829.31,894.26,838.31" style="stroke:#000000;stroke-width:1;"/><text fill="#000000" font-family="sans-serif" font-size="13" lengthAdjust="spacing" textLength="29.7832" x="864.26" y="767.9369">uses</text></g><!--link GridValidator to Cell--><g class="link" data-entity-1="ent0005" data-entity-2="ent0002" data-link-type="dependency" data-source-line="108" id="lnk20"><path codeLine="108" d="M1046.11,705.4 C1046.11,785.72 1046.11,922.81 1046.11,922.81 C1046.11,922.81 1197.77,922.81 1314.17,922.81" fill="none" id="GridValidator-to-Cell" style="stroke:#000000;stroke-width:1;stroke-dasharray:7,7;"/><polygon fill="#000000" points="1320.17,922.81,1311.17,918.81,1315.17,922.81,1311.17,926.81,1320.17,922.81" style="stroke:#000000;stroke-width:1;"/><text fill="#000000" font-family="sans-serif" font-size="13" lengthAdjust="spacing" textLength="29.7832" x="1044.43" y="918.8769">uses</text></g><!--link GridPrinter to Grid--><g class="link" data-entity-1="ent0006" data-entity-2="ent0003" data-link-type="dependency" data-source-line="111" id="lnk21"><path codeLine="111" d="M1235.32,697.26 C1235.32,765.36 1235.32,880.81 1235.32,880.81 C1235.32,880.81 1084.67,880.81 983.69,880.81" fill="none" id="GridPrinter-to-Grid" style="stroke:#000000;stroke-width:1;stroke-dasharray:7,7;"/><polygon fill="#000000" points="977.69,880.81,986.69,884.81,982.69,880.81,986.69,876.81,977.69,880.81" style="stroke:#000000;stroke-width:1;"/><text fill="#000000" font-family="sans-serif" font-size="13" lengthAdjust="spacing" textLength="29.7832" x="1168.28" y="876.8769">uses</text></g><!--link GridPrinter to Cell--><g class="link" data-entity-1="ent0006" data-entity-2="ent0002" data-link-type="dependency" data-source-line="112" id="lnk22"><path codeLine="112" d="M1482.86,697.36 C1482.86,738.16 1482.86,790.26 1482.86,832.17" fill="none" id="GridPrinter-to-Cell" style="stroke:#000000;stroke-width:1;stroke-dasharray:7,7;"/><polygon fill="#000000" points="1482.86,838.17,1486.86,829.17,1482.86,833.17,1478.86,829.17,1482.86,838.17" style="stroke:#000000;stroke-width:1;"/><text fill="#000000" font-family="sans-serif" font-size="13" lengthAdjust="spacing" textLength="29.7832" x="1452.86" y="763.8369">uses</text></g><!--link AStarSearch to Grid--><g class="link" data-entity-1="ent0007" data-entity-2="ent0003" data-link-type="dependency" data-source-line="115" id="lnk23"><path codeLine="115" d="M1887.12,697.42 C1887.12,710.86 1887.12,721.81 1887.12,721.81 C1887.12,721.81 935.76,721.81 935.76,721.81 C935.76,721.81 935.76,782.76 935.76,832.45" fill="none" id="AStarSearch-to-Grid" style="stroke:#000000;stroke-width:1;stroke-dasharray:7,7;"/><polygon fill="#000000" points="935.76,838.45,939.76,829.45,935.76,833.45,931.76,829.45,935.76,838.45" style="stroke:#000000;stroke-width:1;"/><text fill="#000000" font-family="sans-serif" font-size="13" lengthAdjust="spacing" textLength="29.7832" x="1335.31" y="717.8769">uses</text></g><!--link AStarSearch to Cell--><g class="link" data-entity-1="ent0007" data-entity-2="ent0002" data-link-type="dependency" data-source-line="116" id="lnk24"><path codeLine="116" d="M1934.29,697.51 C1934.29,768.53 1934.29,891.81 1934.29,891.81 C1934.29,891.81 1716.24,891.81 1570.52,891.81" fill="none" id="AStarSearch-to-Cell" style="stroke:#000000;stroke-width:1;stroke-dasharray:7,7;"/><polygon fill="#000000" points="1564.52,891.81,1573.52,895.81,1569.52,891.81,1573.52,887.81,1564.52,891.81" style="stroke:#000000;stroke-width:1;"/><text fill="#000000" font-family="sans-serif" font-size="13" lengthAdjust="spacing" textLength="29.7832" x="1816.56" y="887.8769">uses</text></g><!--link AStarSearch to OpenNode--><g class="link" data-entity-1="ent0007" data-entity-2="ent0004" data-link-type="dependency" data-source-line="117" id="lnk25"><path codeLine="117" d="M2121.26,697.36 C2121.26,735.53 2121.26,782.85 2121.26,823.88" fill="none" id="AStarSearch-to-OpenNode" style="stroke:#000000;stroke-width:1;stroke-dasharray:7,7;"/><polygon fill="#000000" points="2121.26,829.88,2125.26,820.88,2121.26,824.88,2117.26,820.88,2121.26,829.88" style="stroke:#000000;stroke-width:1;"/><text fill="#000000" font-family="sans-serif" font-size="13" lengthAdjust="spacing" textLength="29.7832" x="2091.26" y="759.6869">uses</text></g><!--link TestAStarAlgorithm to GridBuilder--><g class="link" data-entity-1="ent0010" data-entity-2="ent0009" data-link-type="dependency" data-source-line="120" id="lnk26"><path codeLine="120" d="M858.52,294.04 C858.52,395.27 858.52,559.81 858.52,559.81 C858.52,559.81 718.34,559.81 573.87,559.81" fill="none" id="TestAStarAlgorithm-to-GridBuilder" style="stroke:#000000;stroke-width:1;stroke-dasharray:7,7;"/><polygon fill="#000000" points="567.87,559.81,576.87,563.81,572.87,559.81,576.87,555.81,567.87,559.81" style="stroke:#000000;stroke-width:1;"/><text fill="#000000" font-family="sans-serif" font-size="13" lengthAdjust="spacing" textLength="29.7832" x="816.08" y="555.8769">uses</text></g><!--link TestAStarAlgorithm to AStarAlgorithm--><g class="link" data-entity-1="ent0010" data-entity-2="ent0008" data-link-type="dependency" data-source-line="121" id="lnk27"><path codeLine="121" d="M973.82,293.94 C973.82,313.74 973.82,328.68 973.82,347.24" fill="none" id="TestAStarAlgorithm-to-AStarAlgorithm" style="stroke:#000000;stroke-width:1;stroke-dasharray:7,7;"/><polygon fill="#000000" points="973.82,353.24,977.82,344.24,973.82,348.24,969.82,344.24,973.82,353.24" style="stroke:#000000;stroke-width:1;"/><text fill="#000000" font-family="sans-serif" font-size="13" lengthAdjust="spacing" textLength="29.7832" x="943.82" y="319.6569">uses</text></g><!--link main to TestAStarAlgorithm--><g class="link" data-entity-1="ent0011" data-entity-2="ent0010" data-link-type="dependency" data-source-line="124" id="lnk28"><path codeLine="124" d="M865.26,80.03 C865.26,97.32 865.26,112.63 865.26,133.23" fill="none" id="main-to-TestAStarAlgorithm" style="stroke:#000000;stroke-width:1;stroke-dasharray:7,7;"/><polygon fill="#000000" points="865.26,139.23,869.26,130.23,865.26,134.23,861.26,130.23,865.26,139.23" style="stroke:#000000;stroke-width:1;"/><text fill="#000000" font-family="sans-serif" font-size="13" lengthAdjust="spacing" textLength="29.1104" x="835.26" y="105.6969">calls</text></g><?plantuml-src jLPRSzCw47xthz0Jf91oEA-UD3DDovG-763AfO-COczYJMN98yaD6OR_VdPbsP4lBHH2Nc9fl_tsejsLx9rG5JUyP9dargvuThSrkbRvXPRQiDj2E4Zi0AHD3gO1h2Hg305lWIFWPrpS6BsRPh45p_LEg2tRS6bZ9IaKk7q5J1jNw2HvpawFyqEcI-uu8t9xHDh4PuHTW9HiiR3Er9bRBjdtXB6NpB2K2UNO6NljrzbWhIimt6bpTZRBjBBEqpmxGTHQQvdyQDclZCYHdNpFOHFexo53rKNuGzhb4dTV8_d60E3dl_YvbZgxW_n0zRu2zKxdC7PsCt1kErYB_Di3xY-3zortBu9Zdk25Dj2KuDyuGyho5ov5JZ65f5nRlqEYsPPE8VMmBa2FKIlg0Xi3vgp2BphEELEy15nWkh7YlzuBsFNLxJljLiqv_IP5y1e8_1iKlJhxW787RVn-DOn-ZYpSk8vwgxaC2-Ayro8_A7_WhhZGE5A4GW_jhC8rWPgo9PtbM8cit0fNaF8WeB7whxZJXNZ-4R4VWPki224sYwV45zb6XbFs7rS5Tuwh6Uzqrf421kHnD-3xXBhE1uOZ3vGxC58Fpnce_BfjjJdBjBJDzyXqFwPpkTK6KrQ6i6vgzISnbL_lkrP8-wqHv5Keb3Gkco2pJOBJEDtzCblLGkPTcKKxivFH3juZTfoFHoAQinsN7jShiryc9krBK5QuFMvjfEQkKVwE9ft8Vh3GhrTeym6Mav2OOAkl_baPu5d1rnAUe7u5JIksidQJSkpyBiNPGSctQ9FE9Ig8zgIY7BQWGoBzphKIxarPkVqZhlQRx1DODoZAnM9Jgym9R83kni4IFPUIm7RMcm6qTGaRNij3m3qXTbpDvIqTyZJWl7PwMXAVt4WOdKiVq8LMSg4m6EnRiw-qltL3D2IPjUr-v8ll1YJtkIj4TTIRZ-xKij9OwSYU3YU9tYdBXBFC5VYaOBPUsxrrKDfa07nnUZguFjDuWZm4R-yQvk5Xe4o1uwdTW9i9CmeW7YsTzxxgkSfPXYLjanZJUk8v2JUI-fTTsdNAFw51oF8bu8Cd1vNjHvchyONI49DTpu5rGpFvP1ZVgrVBrWNIcX877xnuOBUVzMcp9U1REcTMRF4AhWqqAJXe3JqOIt_YG7kEJp7VwamPZsMFc8wheZCz3pS0UT0zTZsTmd6nJsAbpZRpLNL8VoJtzX-HTpQcVPmOXPshRPcHgtrCCg7MEjjg7Lnw03pOclRFpxFCtvPZciHBYMl2HDge_Gy0?></g></svg>